PathFileType	4	(X/Y/Z)	Patient4_TMGait_0pt6_01_right_41.trc.trc
DataRate	CameraRate	NumFrames	NumMarkers	Units	OrigDataRate	OrigDataStartFrame	OrigNumFrames
82.840236686390	82.840236686390	6	33	mm	82.840236686390	53	       141
Frame#	Time	Sacral			L.Shoulder			Chest			R.Shoulder			Neck			R.ASIS			L.ASIS			R.Thigh.Superior			R.Thigh.Lateral			R.Thigh.Inferior			R.Patella			L.Thigh.Superior			L.Thigh.Lateral			L.Thigh.Inferior			L.Patella			L.Shank.Superior			L.Shank.Lateral			L.Shank.Inferior			R.Shank.Superior			R.Shank.Lateral			R.Shank.Inferior			R.Heel			R.Midfoot.Superior			R.Midfoot.Lateral			R.Toe			L.Heel			L.Midfoot.Lateral			L.Midfoot.Superior			L.Toe			L.Elbow			L.Wrist			R.Elbow			R.Wrist			
		X1	Y1	Z1	X2	Y2	Z2	X3	Y3	Z3	X4	Y4	Z4	X5	Y5	Z5	X6	Y6	Z6	X7	Y7	Z7	X8	Y8	Z8	X9	Y9	Z9	X10	Y10	Z10	X11	Y11	Z11	X12	Y12	Z12	X13	Y13	Z13	X14	Y14	Z14	X15	Y15	Z15	X16	Y16	Z16	X17	Y17	Z17	X18	Y18	Z18	X19	Y19	Z19	X20	Y20	Z20	X21	Y21	Z21	X22	Y22	Z22	X23	Y23	Z23	X24	Y24	Z24	X25	Y25	Z25	X26	Y26	Z26	X27	Y27	Z27	X28	Y28	Z28	X29	Y29	Z29	X30	Y30	Z30	X31	Y31	Z31	X32	Y32	Z32	X33	Y33	Z33	

53	49.927714285714	776.725043929577	1011.345303789600	514.119606116266	936.927250783066	1437.213598864224	322.591179045713	1057.714979312047	1367.420852354028	469.656539774595	996.882256331122	1438.506736035376	652.865068710197	937.175780170485	1497.368388650676	477.398415808817	1009.015102728664	943.405917373788	611.700254364129	975.167685752322	968.913688938272	339.800297690468	1035.008567926356	738.792729763287	576.476217050424	949.136577085390	633.980251969750	638.858018935483	1016.300620980608	579.901525830635	554.319582306538	1009.895987355950	493.501245931810	557.746130064975	1064.831127296293	791.626807241205	367.678449346976	1025.046578414374	664.633262138748	287.706748259773	1129.084338077048	606.745783864187	348.584317816279	1155.939656167946	533.712556249299	340.477879763118	1126.651225719184	458.217517309294	329.093456800030	1036.018044466683	346.531983397145	274.348206069967	1099.471714195827	231.104039423203	327.572535444186	983.112527693365	404.260979675441	562.694645911072	912.404887404524	299.055090309479	622.109256484518	951.952825620547	205.923850090842	554.930070865489	816.298158641425	42.189763227345	519.977751822080	986.889577377518	96.401217431994	557.526540457315	898.673480218811	36.555579613510	595.776036587724	1106.900133404972	43.608956626064	586.973846193097	984.031839516688	64.061476192335	359.582064532059	1054.911700505923	68.897708368667	277.107777301521	1135.389276011124	135.220822834930	302.025231761995	1263.046822003463	93.060611170784	266.766394719386	885.289419710135	1078.798800399615	221.619477474855	921.686712586080	821.831456020124	224.308164325688	1086.341627705382	1102.430337819010	770.436311494525	1335.464315882233	1050.265110766219	735.484870955254	
54	49.939785714286	775.889388557882	1011.587421549210	514.522805049659	935.647819372595	1437.260597724841	322.661429516984	1057.118374427689	1367.328241320932	469.078457731898	997.275778637264	1438.505131358008	652.556142814467	936.666576397739	1497.313496477691	477.405853023397	1008.360002512898	943.041385516014	611.162874753083	973.665529296072	968.969472723439	339.340807772806	1032.209803561503	737.998739749027	575.658702518590	945.612924451677	633.806287421514	638.710904400317	1011.764705517312	579.162073496936	553.952990208539	1004.545639086557	492.942905545884	557.437695097226	1062.454433865622	791.023672816628	367.036140940452	1022.379259968826	664.578373739387	286.228684404689	1125.783668201080	606.204907218938	348.087885951314	1153.765808002647	535.853229671730	340.086817159087	1128.768204209346	461.188320957041	328.141735078190	1046.437842115654	343.840327071624	272.371061137183	1117.279244282480	232.714746251580	326.050362119767	977.289549623436	403.849886647394	562.479596236266	906.229214509693	298.937747501459	622.044551065857	945.199766586183	205.635442990499	554.798855891401	808.995540695642	42.162431085777	520.007270795401	979.573238548967	96.351439783694	557.497201548935	891.363053346387	36.541563507795	595.792575817912	1099.582537385758	43.541535440811	587.005569351962	1012.689699043290	58.831945503371	356.959797100437	1084.767930578740	67.177357849800	275.651280486562	1160.804411283659	138.337398525222	301.223531347226	1291.438211987875	103.311504643798	268.633336936820	875.873445370064	1080.237862140954	222.271078460900	901.025862039499	822.208611948242	224.761024492280	1094.564375934433	1105.484554939839	769.561889647601	1345.798887318921	1071.259423440187	731.124396028889	
55	49.951857142857	775.188676185214	1011.871248594815	514.785962284025	934.518213741213	1437.361723474330	322.602739705702	1056.616498595411	1367.239563393840	468.403506871153	997.680836174913	1438.479908400414	652.112302347496	936.202011285341	1497.252728623847	477.312157552689	1007.795503223069	942.665720591126	610.514156740372	972.312337681734	968.928680282735	338.789960285323	1029.355085482374	737.130613947914	574.954104287443	941.863531947361	633.659149068373	638.545856424005	1006.993954499734	578.394508252784	553.608915754726	998.915979315450	492.418125796394	557.159617249633	1059.846311897325	790.043153930426	366.270349018649	1019.431373325603	664.273583792500	284.581718616811	1122.250831110836	605.359795746708	347.416883164758	1151.199048192506	537.675675705700	339.661463126661	1130.279016306861	464.066898717669	327.196374238114	1056.183567714059	341.741782273634	270.585394326768	1133.835143970873	235.253319078027	324.783934238141	971.201984898326	403.504887977875	562.284572099408	899.852811805505	298.862826224589	622.008125032942	938.335205208952	205.412787607454	554.707474350448	801.683646498251	42.148742425129	520.044598914325	972.255459945534	96.307996683296	557.487465048507	884.046585531981	36.525833964908	595.814653153485	1092.263588974337	43.480519990414	587.037238164686	1039.841012980754	55.647301706170	354.862590019572	1113.023719798921	67.027384340327	274.737888348335	1184.670525098345	142.513750579195	300.774353268907	1317.756213647448	114.158323900839	270.995856362504	866.696005368009	1081.993064108890	222.786068626099	881.260458614101	823.406724949314	225.361993381883	1102.476573803117	1108.667784389146	768.469391496534	1354.518424268184	1092.120289754312	726.688039312225	
56	49.963928571429	774.613713230605	1012.179760299535	514.905779818905	933.531111279393	1437.513446949906	322.414550019365	1056.198510298236	1367.153487197871	467.635900153593	998.081245779128	1438.441476247973	651.533394023661	935.768594137332	1497.186507827234	477.110650997578	1007.323265124484	942.287054409109	609.745026528064	971.097043065498	968.820284510107	338.137296119390	1026.486082542616	736.204296698018	574.329039628385	937.959292713579	633.536262020808	638.331424930690	1002.066980076574	577.610540577437	553.255819073208	993.103215700960	491.920546102319	556.881976075040	1057.091501040209	788.829301842410	365.419086189494	1016.364308232014	663.789497693081	282.858934935903	1118.699830507034	604.373957661095	346.599607271022	1148.455147504936	539.253610300418	339.201614041288	1131.299739074551	466.821942586450	326.254688131440	1065.074301074253	340.223972450484	269.081964424611	1148.902833513527	238.521624383747	323.746598360234	964.929179689116	403.216863823471	562.086249550101	893.338571182933	298.838084731615	621.984609263905	931.395120313676	205.250180682078	554.640485657039	794.364035327532	42.152543155216	520.087023818768	964.940178511788	96.271982865325	557.494878914222	876.725771534519	36.510830907839	595.841797485879	1084.947082471207	43.423676705484	587.068667587517	1064.961607369871	54.312982374053	353.374176292015	1139.092081293616	68.187166177051	274.344578660271	1206.582229828772	147.446059903147	300.573008141589	1341.600772386043	125.123258568893	273.527814914550	857.795750907013	1084.036584395964	223.175387480003	862.479835878352	825.312939480587	226.097862365140	1110.077597409173	1111.966221849224	767.174780774997	1361.696586101869	1112.609607761801	722.234559689077	
57	49.976000000000	774.149120359600	1012.489030393532	514.876166503097	932.665813203527	1437.706818725485	322.101319648781	1055.845850405371	1367.066848751673	466.781388767610	998.457446530776	1438.395557976212	650.823375955586	935.347098948874	1497.111495244146	476.795961434364	1006.941866614933	941.912531814411	608.848687480063	970.007301296411	968.668677962060	337.371122300791	1023.639074478421	735.238093040718	573.733914311009	933.977025046146	633.431736495719	638.041027595574	997.066524338846	576.817509522890	552.862879940465	987.208855353329	491.439235157417	556.576041868015	1054.303813169298	787.536062768795	364.511626079359	1013.331008653755	663.185426977908	281.165003907421	1115.332748759127	603.395263162912	345.664062036625	1145.745775429328	540.645876835841	338.690374792995	1131.946933096499	469.397678158067	325.313760985335	1072.930506644957	339.216632354521	267.940782066102	1162.265529608514	242.244119978604	322.910068577343	958.558764748852	402.973441079786	561.865472363755	886.752896899302	298.866754822760	621.959661083601	924.416940434846	205.138237599290	554.583453026874	787.038984798312	42.176093958353	520.132400071044	957.630770518671	96.243411888529	557.515874513499	869.402534581839	36.498683749035	595.873569898864	1077.636024348684	43.368137067925	587.098592113858	1087.558607048944	54.509057026895	352.563916263657	1162.411371433398	70.296136347458	274.429735359866	1226.154021474448	152.750122120658	300.510444750819	1362.610037952081	135.668460537349	275.884341899026	849.209911344557	1086.328187652738	223.450060136049	844.753540078887	827.801770773990	226.947036587074	1117.361217876829	1115.361436056467	765.698496855897	1367.435831240393	1132.502285851447	717.814042216058	
58	49.988071428571	773.776341801121	1012.770424710115	514.689079683119	931.890207768863	1437.926939232956	321.671153523291	1055.533989292986	1366.974003531905	465.845708145958	998.788810753351	1438.341681744773	649.989153603335	934.914501256235	1497.019921622015	476.364389611842	1006.647274709306	941.546970396080	607.823091301895	969.033561379843	968.487840597843	336.481904799690	1020.845904724407	734.250507370682	573.114431389060	929.993805108686	633.337421300702	637.656917094094	992.075205648514	576.017719523626	552.406154082217	981.333170846588	490.959418512604	556.219295153705	1051.619414043368	786.308452155608	363.564558584663	1010.466771795797	662.501908307296	279.601691035417	1112.326500375190	602.539000821808	344.631945090705	1143.263136919378	541.883562430322	338.096218658323	1132.331168584085	471.713743082285	324.374963367664	1079.593038250699	338.600039432608	267.219641886551	1173.732443176770	246.089352674063	322.255017848580	952.180725383473	402.759532700075	561.609838522044	880.161884032624	298.947415157325	621.922479868614	917.437448195973	205.064765336158	554.524808129190	779.711295453352	42.220106170541	520.179396115873	950.330093778780	96.221165242755	557.546668309226	862.079037976070	36.490889706749	595.909691868895	1070.332120390616	43.310092714802	587.125080017289	1107.186077150080	55.822601061690	352.476512652434	1182.477115986784	72.924943917912	274.942727622251	1243.036465627826	157.990385628085	300.496273825549	1380.475158604713	145.233040106343	277.765009156941	840.973728561298	1088.814881216053	223.620101342957	828.133822570900	830.737717419457	227.880887069606	1124.313589125235	1118.828304831118	764.065216681335	1371.859388005031	1151.594420512151	713.465337789144	
